<svg xmlns="http://www.w3.org/2000/svg" viewBox="0 0 750 500"><g id="freepik--background-complete--inject-33"><path d="M289.79,113.32c-.25.44.17,39.8.17,39.8l3.2,0,1.08-39.84Z" style="fill:#e0e0e0"></path><polygon points="293.48 147.78 289.79 147.98 289.82 153.55 285.64 155.74 285.66 159.4 288.4 163.19 288.51 157.91 291.93 156.13 294.84 157.65 294.67 163.34 297.69 159.64 297.52 156.25 293.64 153.37 293.48 147.78" style="fill:#e0e0e0"></polygon><rect x="216.51" y="123.14" width="67.26" height="18.5" rx="8.27" transform="translate(-11.42 240.47) rotate(-50.34)" style="fill:#e0e0e0"></rect><rect x="258.11" y="107.71" width="39.3" height="11.61" rx="5.19" style="fill:#e0e0e0"></rect><rect x="223.37" y="140.54" width="25.99" height="81.79" rx="11.62" style="fill:#e0e0e0"></rect><path d="M243,209.91a6.41,6.41,0,1,1-6.41-6.4A6.41,6.41,0,0,1,243,209.91Z" style="fill:#e0e0e0"></path><path d="M242.77,151.76a6.41,6.41,0,1,1-6.4-6.41A6.41,6.41,0,0,1,242.77,151.76Z" style="fill:#e0e0e0"></path><circle cx="264.72" cy="113.52" r="3.89" style="fill:#e0e0e0"></circle><circle cx="292.21" cy="113.52" r="2.64" style="fill:#e0e0e0"></circle><path d="M515.49,96.17c.27.51-1.3,29.47-1.3,29.47l-3.68-.06L510.39,96Z" style="fill:#e0e0e0"></path><polygon points="508.68 110.1 517.38 110.78 516.95 123.93 526.68 129.34 526.39 137.98 519.71 146.73 519.77 134.29 511.83 129.87 504.85 133.28 504.92 146.7 498.03 137.8 498.64 129.82 507.96 123.26 508.68 110.1" style="fill:#e0e0e0"></polygon><rect x="522.01" y="107.91" width="77.03" height="21.19" rx="9.48" transform="translate(827.03 625.67) rotate(-129.66)" style="fill:#e0e0e0"></rect><rect x="506.39" y="90.25" width="45.01" height="13.3" rx="5.95" transform="translate(1057.8 193.79) rotate(180)" style="fill:#e0e0e0"></rect><rect x="561.42" y="127.84" width="29.77" height="93.66" rx="13.31" transform="translate(1152.61 349.35) rotate(180)" style="fill:#e0e0e0"></rect><circle cx="576" cy="207.29" r="7.34" transform="translate(163.22 659.35) rotate(-67.39)" style="fill:#e0e0e0"></circle><circle cx="576.31" cy="140.69" r="7.34" style="fill:#e0e0e0"></circle><circle cx="543.84" cy="96.9" r="4.45" style="fill:#e0e0e0"></circle><path d="M510.22,94.76a3,3,0,1,0,4.27,0A3,3,0,0,0,510.22,94.76Z" style="fill:#e0e0e0"></path><rect x="170.08" y="197.55" width="473.76" height="26.44" rx="11.82" transform="translate(813.92 421.54) rotate(180)" style="fill:#e0e0e0"></rect><path d="M231.84,211.55a6.57,6.57,0,1,0,6.57-6.57A6.58,6.58,0,0,0,231.84,211.55Z" style="fill:#e0e0e0"></path><circle cx="184.5" cy="210.51" r="6.57" style="fill:#e0e0e0"></circle><path d="M291.66,211.55a6.57,6.57,0,1,0,6.57-6.57A6.58,6.58,0,0,0,291.66,211.55Z" style="fill:#e0e0e0"></path><path d="M351.48,211.55a6.57,6.57,0,1,0,6.57-6.57A6.58,6.58,0,0,0,351.48,211.55Z" style="fill:#e0e0e0"></path><path d="M411.3,211.55a6.57,6.57,0,1,0,6.57-6.57A6.58,6.58,0,0,0,411.3,211.55Z" style="fill:#e0e0e0"></path><path d="M471.12,211.55a6.57,6.57,0,1,0,6.57-6.57A6.58,6.58,0,0,0,471.12,211.55Z" style="fill:#e0e0e0"></path><path d="M530.94,211.55a6.58,6.58,0,1,0,6.57-6.57A6.58,6.58,0,0,0,530.94,211.55Z" style="fill:#e0e0e0"></path><path d="M612.5,211.55a6.58,6.58,0,1,0,6.58-6.57A6.59,6.59,0,0,0,612.5,211.55Z" style="fill:#e0e0e0"></path><rect x="537.51" y="223.99" width="74.99" height="102.11" transform="translate(1150.02 550.09) rotate(180)" style="fill:#e0e0e0"></rect><rect x="205.54" y="265.54" width="74.99" height="62.44" transform="translate(486.08 593.52) rotate(180)" style="fill:#e0e0e0"></rect></g><g id="freepik--Floor--inject-33"><path d="M621.76,430.05c0,.15-129.61.26-289.46.26s-289.5-.11-289.5-.26,129.59-.26,289.5-.26S621.76,429.91,621.76,430.05Z" style="fill:#263238"></path></g><g id="freepik--character-2--inject-33"><path d="M392.22,426.51l.1-6.7-12.56-.27-.24,9.81.77.07c3.47.26,17.62,1.1,19.95.45C402.84,429.14,392.22,426.51,392.22,426.51Z" style="fill:#407BFF"></path><g style="opacity:0.4"><path d="M384.07,429.35a4.37,4.37,0,0,0-1.54-2.71,4.28,4.28,0,0,0-2.92-1l-.08,3.51Z"></path></g><g style="opacity:0.4"><path d="M397.41,428s3.71,1.16,3.24,1.76-14.82.3-21.13-.39l0-.28,16.72.5S396.68,428,397.41,428Z"></path></g><path d="M379.35,429.06l.21,0,.62.05,2.28.14c1.93.12,4.59.23,7.53.3s5.61.07,7.54,0l2.29-.05.62,0a.85.85,0,0,0,.21,0h-3.12c-1.93,0-4.59,0-7.53-.08s-5.61-.17-7.53-.25l-2.29-.1-.62,0Z" style="fill:#263238"></path><path d="M396.26,429.77a4.6,4.6,0,0,1,.44-1.08,5.59,5.59,0,0,1,.8-.86,2,2,0,0,0-1.24,1.94Z" style="fill:#263238"></path><path d="M392.59,427.81s.22-.19.41-.48a1.38,1.38,0,0,0,.28-.55s-.22.19-.41.47S392.56,427.78,392.59,427.81Z" style="fill:#263238"></path><path d="M391.59,427.25s.22-.1.44-.29.38-.37.35-.4-.22.1-.44.29S391.56,427.22,391.59,427.25Z" style="fill:#263238"></path><path d="M391,426.05a1.46,1.46,0,0,0,.65.1,1.51,1.51,0,0,0,.66-.06,1.54,1.54,0,0,0-.65-.09A1.4,1.4,0,0,0,391,426.05Z" style="fill:#263238"></path><path d="M390.77,425.21a1.21,1.21,0,0,0,.72.23,1.26,1.26,0,0,0,.76-.09,4.94,4.94,0,0,0-.74-.06A4.22,4.22,0,0,0,390.77,425.21Z" style="fill:#263238"></path><path d="M393,426.72a2.28,2.28,0,0,0,.81,0,3.94,3.94,0,0,0,.86-.17,2.41,2.41,0,0,0,.5-.19.4.4,0,0,0,.2-.25.3.3,0,0,0-.11-.32,1.47,1.47,0,0,0-1.84.39,1.39,1.39,0,0,0-.28.54c0,.13,0,.21,0,.21a2.11,2.11,0,0,1,.38-.68,1.4,1.4,0,0,1,.7-.43,1.24,1.24,0,0,1,1,.09c.12.09.07.24-.07.33a2.58,2.58,0,0,1-.46.18,5.58,5.58,0,0,1-.84.2C393.35,426.7,393,426.7,393,426.72Z" style="fill:#263238"></path><path d="M393.25,426.77a.83.83,0,0,0,.1-.56,1.29,1.29,0,0,0-.2-.6.81.81,0,0,0-.67-.42.32.32,0,0,0-.25.37.82.82,0,0,0,.13.36,2.24,2.24,0,0,0,.37.5c.24.25.44.35.45.33s-.16-.15-.37-.41a2.45,2.45,0,0,1-.33-.49c-.11-.17-.18-.48,0-.51s.4.19.52.35a1.46,1.46,0,0,1,.22.53A4.09,4.09,0,0,1,393.25,426.77Z" style="fill:#263238"></path><path d="M379.68,425.63s.36,0,.92.05a4.09,4.09,0,0,1,2,.88,4.14,4.14,0,0,1,1.23,1.81,7.75,7.75,0,0,1,.21.9.62.62,0,0,0,0-.25,3.25,3.25,0,0,0-.12-.68,3.82,3.82,0,0,0-3.32-2.77,3.84,3.84,0,0,0-.7,0C379.76,425.6,379.67,425.62,379.68,425.63Z" style="fill:#263238"></path><path d="M381.09,420.43a20.87,20.87,0,0,0-.16,2.58,23.32,23.32,0,0,0,0,2.58,19.67,19.67,0,0,0,.17-2.58A21.81,21.81,0,0,0,381.09,420.43Z" style="fill:#263238"></path><path d="M385.68,428.16a7.09,7.09,0,0,0,1.83.22,7.22,7.22,0,0,0,1.84-.11s-.83,0-1.84,0S385.68,428.11,385.68,428.16Z" style="fill:#263238"></path><path d="M383.22,428.1s.06.18.14.37.12.35.17.35.06-.2,0-.41S383.24,428.07,383.22,428.1Z" style="fill:#263238"></path><path d="M382.31,426.93s.05.16.18.29.25.22.28.19,0-.16-.17-.29S382.35,426.9,382.31,426.93Z" style="fill:#263238"></path><path d="M381,426.37s.17.05.36.11.31.17.34.15-.06-.21-.29-.29S381,426.33,381,426.37Z" style="fill:#263238"></path><path d="M380.06,426.1s.05.11.16.15.2,0,.21,0-.05-.11-.15-.15S380.08,426.06,380.06,426.1Z" style="fill:#263238"></path><path d="M343.08,421.35l1.84-6.45,12.1,3.38-2.6,9.46-.76-.16c-3.39-.75-17.18-4-19.23-5.34C332.16,420.79,343.08,421.35,343.08,421.35Z" style="fill:#407BFF"></path><g style="opacity:0.4"><path d="M350.06,426.42a4.41,4.41,0,0,1,2.27-2.15,4.28,4.28,0,0,1,3.07-.09l-.94,3.39Z"></path></g><g style="opacity:0.4"><path d="M337.69,421.26s-3.89,0-3.61.75,14.1,4.57,20.34,5.73l.06-.27-16.15-4.36S338.39,421.48,337.69,421.26Z"></path></g><path d="M354.67,427.51l-.21,0-.61-.13c-.6-.15-1.35-.32-2.23-.52-1.87-.45-4.45-1.11-7.29-1.9s-5.39-1.56-7.23-2.14l-2.17-.7-.59-.2-.2-.08.21.05.59.17,2.19.66c1.85.55,4.4,1.31,7.24,2.1s5.41,1.46,7.28,1.93l2.21.57.6.16Z" style="fill:#263238"></path><path d="M338.28,423.3a5.8,5.8,0,0,0-.12-1.16,5.2,5.2,0,0,0-.51-1.05,2,2,0,0,1,.63,2.21Z" style="fill:#263238"></path><path d="M342.35,422.49s-.15-.25-.25-.57a1.37,1.37,0,0,1-.11-.62s.16.24.26.57A1.27,1.27,0,0,1,342.35,422.49Z" style="fill:#263238"></path><path d="M343.48,422.24s-.19-.16-.35-.4-.25-.46-.22-.49.19.16.35.41S343.51,422.22,343.48,422.24Z" style="fill:#263238"></path><path d="M344.41,421.27a1.48,1.48,0,0,1-.65-.09,1.52,1.52,0,0,1-.61-.25,1.59,1.59,0,0,1,.65.1C344.15,421.12,344.43,421.23,344.41,421.27Z" style="fill:#263238"></path><path d="M344.85,420.53a1.25,1.25,0,0,1-.76,0,1.21,1.21,0,0,1-.7-.3,4.38,4.38,0,0,1,.73.16A3.38,3.38,0,0,1,344.85,420.53Z" style="fill:#263238"></path><path d="M342.24,421.32a2.5,2.5,0,0,1-.78-.22,5.58,5.58,0,0,1-.78-.42,2.32,2.32,0,0,1-.42-.33.43.43,0,0,1-.12-.29.32.32,0,0,1,.2-.28,1.5,1.5,0,0,1,1.76,1.5.53.53,0,0,1,0,.22,2.36,2.36,0,0,0-.17-.77,1.47,1.47,0,0,0-.54-.61,1.27,1.27,0,0,0-1-.2c-.14.06-.14.22,0,.34a2.33,2.33,0,0,0,.38.31,6.87,6.87,0,0,0,.74.43C342,421.21,342.24,421.29,342.24,421.32Z" style="fill:#263238"></path><path d="M342,421.3a.83.83,0,0,1,.07-.57,1.18,1.18,0,0,1,.37-.5.77.77,0,0,1,.75-.22.31.31,0,0,1,.14.42.78.78,0,0,1-.23.32,2.34,2.34,0,0,1-.49.36,1.11,1.11,0,0,1-.54.19s.2-.09.48-.28a3.39,3.39,0,0,0,.46-.37c.15-.14.3-.41.12-.5s-.44.06-.61.18a1.62,1.62,0,0,0-.36.45A4.71,4.71,0,0,0,342,421.3Z" style="fill:#263238"></path><path d="M355.35,424.13s-.34-.13-.91-.22a4.14,4.14,0,0,0-2.17.26,4.09,4.09,0,0,0-1.7,1.39c-.33.46-.44.81-.47.8s0-.09.07-.25a3.79,3.79,0,0,1,4.29-2.3,2.93,2.93,0,0,1,.66.2Z" style="fill:#263238"></path><path d="M355.5,418.75a24.2,24.2,0,0,1-.59,2.51,22.81,22.81,0,0,1-.74,2.48,24,24,0,0,1,.59-2.52A20.6,20.6,0,0,1,355.5,418.75Z" style="fill:#263238"></path><path d="M348.87,424.82a7,7,0,0,1-1.82-.32,7.69,7.69,0,0,1-1.73-.63s.8.22,1.77.48S348.88,424.77,348.87,424.82Z" style="fill:#263238"></path><path d="M351.24,425.47s-.11.15-.24.31-.22.31-.26.3,0-.21.14-.39S351.22,425.44,351.24,425.47Z" style="fill:#263238"></path><path d="M352.45,424.61s-.1.14-.26.23-.3.14-.33.1.1-.14.26-.23S352.42,424.58,352.45,424.61Z" style="fill:#263238"></path><path d="M353.87,424.46s-.18,0-.38,0-.35.07-.37,0,.12-.17.36-.19S353.89,424.43,353.87,424.46Z" style="fill:#263238"></path><path d="M354.84,424.47s-.08.09-.19.1-.21,0-.21-.06.08-.08.19-.09S354.84,424.43,354.84,424.47Z" style="fill:#263238"></path><path d="M360,298.66c-.93,1.29-20.84,119.15-20.84,119.15l20.84,7,17.45-112.38-2.11,111.64,23,.37L395,298.66Z" style="fill:#263238"></path><path d="M334.72,211l-3.24,8.7-.05,0-9.25,21.9c-2.81,5.24-3.08,13.39,5.36,16.26,6.74,2.3,20.87-4.19,20.87-4.19L346.7,241.3,333,245.38l5.37-22.68s.46-.8,1.56-3.19l4.45-4.47s-.25-1.32-2.42.6a1.42,1.42,0,0,1-2.09-1.85,2.28,2.28,0,0,1,4.17.47s.85.37,1.17-.28-1.12-3-2.95-3a5.35,5.35,0,0,0-2.2.45s2.17-5.51,1.73-5.71-1.19,0-3.51,6c0,0,1.37-4.94,1.47-5.59s-.6-1.34-1.2.19l-1.91,4.86s.47-3.34.49-3.62c.06-.71-.62-.86-1,0C335.86,208.21,334.72,211,334.72,211Z" style="fill:#b78876"></path><path d="M394.61,255.69l3.12,7.23,9.23-13.5-7.89-15.34c-3.65-3.63-14.32-3.81-16.08-4a21.36,21.36,0,0,1-12.88,0,17.29,17.29,0,0,0-5.33,1c-3.33,1.21-10,3.83-9,3.37L333,245.38l5.68-20.77-9.23-4s-12.78,23-10.06,31.84c2.38,7.7,12.14,7.29,14.61,7.06h0l.47-.06.11,0,24.95-3.27,0,15L344.25,367.4l56.6,2.65-5.66-101.41Z" style="fill:#455a64"></path><path d="M375.34,367.4a.94.94,0,0,1,0-.27l0-.78c0-.72,0-1.73,0-3,0-2.61,0-6.38.09-11,.13-9.32.39-22.19.72-36.41s.65-27,.87-36.41c.11-4.62.2-8.38.26-11,0-1.27.05-2.27.07-3,0-.32,0-.57,0-.78a.14.14,0,1,1,.06,0c0,.21,0,.46,0,.78,0,.73,0,1.73,0,3,0,2.61,0,6.38-.09,11-.13,9.32-.39,22.19-.72,36.41s-.65,27.06-.87,36.41c-.11,4.63-.2,8.38-.26,11,0,1.27-.05,2.28-.07,3q0,.48,0,.78A.94.94,0,0,1,375.34,367.4Z" style="fill:#263238"></path><path d="M389.07,210.67c1.13-1,2.82-.85,4.31-.66,1.11.14,2.37.35,3,1.28,1,1.47-.22,3.58.47,5.22s3,2,4.51,3a4.75,4.75,0,0,1,.4,7.67,10.86,10.86,0,0,1,2.52,7.73,9.1,9.1,0,0,1-4.15,6.89,11,11,0,0,1-8.77.77,8.72,8.72,0,0,1-5.41-3.86,9.82,9.82,0,0,1-.79-5.45,11.67,11.67,0,0,1,2.42-6.93,17.42,17.42,0,0,0,1.52-1.7,2.35,2.35,0,0,0,.38-2.17c-.25-.59-.84-1-1.08-1.58a2.59,2.59,0,0,1,.71-2.48,9.17,9.17,0,0,0,1.69-2.11,2.78,2.78,0,0,0-2.51-3.91" style="fill:#263238"></path><path d="M384.17,218.77a8.72,8.72,0,0,0,4-12.22H382Z" style="fill:#263238"></path><path d="M368.73,230c-.12,0,8.69,34.61,8.69,34.61l9-34.33S371.44,229.41,368.73,230Z" style="fill:#263238"></path><path d="M377.49,237h0a6.6,6.6,0,0,1-6.6-6.58c0-2.83,0-5.47,0-5.47s-5-.78-5.09-5.8.81-16.56.81-16.56h0a17.45,17.45,0,0,1,17.54,2.2l.75.58-.8,25.24A6.6,6.6,0,0,1,377.49,237Z" style="fill:#b78876"></path><path d="M368.49,211.47a.73.73,0,1,0-1-.05A.73.73,0,0,0,368.49,211.47Z" style="fill:#263238"></path><path d="M366.54,210.06c.08.09.57-.29,1.26-.29s1.2.35,1.27.26,0-.19-.26-.36a1.66,1.66,0,0,0-1-.32,1.73,1.73,0,0,0-1,.34C366.58,209.87,366.5,210,366.54,210.06Z" style="fill:#263238"></path><path d="M374.94,210.79a.74.74,0,0,0-.24,1,.73.73,0,1,0,.24-1Z" style="fill:#263238"></path><path d="M374.05,210.67c.08.09.58-.29,1.27-.29s1.19.35,1.27.26,0-.19-.26-.36a1.65,1.65,0,0,0-1-.32,1.63,1.63,0,0,0-1,.34C374.09,210.48,374,210.63,374.05,210.67Z" style="fill:#263238"></path><path d="M371.28,216.38a3.57,3.57,0,0,0-1.12-.24c-.18,0-.32-.06-.33-.15a.9.9,0,0,1,.12-.52l.55-1.41a19.48,19.48,0,0,0,1.19-3.69,18.51,18.51,0,0,0-1.56,3.55c-.17.49-.35,1-.51,1.42a1.09,1.09,0,0,0-.1.75.47.47,0,0,0,.31.29.91.91,0,0,0,.31,0A3.31,3.31,0,0,0,371.28,216.38Z" style="fill:#263238"></path><path d="M370.87,224.87a11.66,11.66,0,0,0,6.55-1.86s-1.55,3.61-6.56,3.16Z" style="fill:#936050"></path><path d="M384.32,211.29c.09,0,2.89-.62,2.87,2.75s-3.41,2.23-3.41,2.13S384.32,211.29,384.32,211.29Z" style="fill:#b78876"></path><path d="M384.81,215s.06,0,.16.09a.64.64,0,0,0,.44,0,1.45,1.45,0,0,0,.68-1.3,1.88,1.88,0,0,0-.16-.84.66.66,0,0,0-.44-.45.3.3,0,0,0-.35.16c0,.09,0,.16,0,.16s-.07-.05,0-.19a.32.32,0,0,1,.13-.21.45.45,0,0,1,.33-.09.8.8,0,0,1,.6.53,1.91,1.91,0,0,1,.2.94,1.51,1.51,0,0,1-.86,1.45.64.64,0,0,1-.54-.1C384.82,215.08,384.8,215,384.81,215Z" style="fill:#936050"></path><path d="M366.63,202.33a6,6,0,0,0,5.09,2.76,19.66,19.66,0,0,0,5.95-1.05c1.06-.29,2.34-.52,3.12.26a3,3,0,0,1,.66,1.76,18.87,18.87,0,0,1,.06,4.25,4.8,4.8,0,0,0,0,1.69,1.42,1.42,0,0,0,1.14,1.12c.88.07,1.93-1.35,2.23-2.19a12.61,12.61,0,0,0,.48-3.13,5.57,5.57,0,0,0-.65-3.57,7.3,7.3,0,0,0-3.26-2.52,19.22,19.22,0,0,0-8-2.11,10.64,10.64,0,0,0-7.63,2.9" style="fill:#263238"></path><path d="M373.74,217.31a1,1,0,0,0-1.22-.3,1.63,1.63,0,0,0-.78,1.09c-.05.19-.07.44.09.56a.55.55,0,0,0,.3.09,2.58,2.58,0,0,0,1-.05,1.26,1.26,0,0,0,.78-.59.83.83,0,0,0-.11-.94" style="fill:#936050"></path><path d="M388.38,207.24H364.21a1.29,1.29,0,0,1-1.29-1.29h0a1.29,1.29,0,0,1,1.29-1.29h24.17a1.29,1.29,0,0,1,1.29,1.29h0A1.29,1.29,0,0,1,388.38,207.24Z" style="fill:#407BFF"></path><path d="M387.55,205H365v-1.78A11.26,11.26,0,0,1,376.29,192h0a11.26,11.26,0,0,1,11.26,11.26Z" style="fill:#407BFF"></path><rect x="374.26" y="191.96" width="3.45" height="13.54" style="fill:#407BFF"></rect><path d="M374.19,204.78a38.62,38.62,0,0,1-.26-6.39,38.62,38.62,0,0,1,.26-6.39,40,40,0,0,1,.26,6.39A40,40,0,0,1,374.19,204.78Z" style="fill:#263238"></path><path d="M377.66,204.78a38.62,38.62,0,0,1-.26-6.39,38.62,38.62,0,0,1,.26-6.39,40,40,0,0,1,.26,6.39A40,40,0,0,1,377.66,204.78Z" style="fill:#263238"></path><path d="M387.94,204.63c0,.15-5.16.26-11.53.26s-11.54-.11-11.54-.26,5.16-.26,11.54-.26S387.94,204.49,387.94,204.63Z" style="fill:#263238"></path><g style="opacity:0.2"><path d="M377.73,191.93v12.78l1.72-12.3Z"></path></g><g style="opacity:0.6000000000000001"><path d="M372.71,194.06a13,13,0,0,1-1.5.83,10.91,10.91,0,0,0-3,2.66,10.79,10.79,0,0,0-1.83,3.59,11.57,11.57,0,0,1-.44,1.65,3.82,3.82,0,0,1,.08-1.74,9.45,9.45,0,0,1,5.05-6.49A3.81,3.81,0,0,1,372.71,194.06Z" style="fill:#fff"></path></g><path d="M374.35,216.85c.09.11-.45.75-1.33,1.28s-1.7.71-1.75.57.66-.51,1.48-1S374.25,216.74,374.35,216.85Z" style="fill:#263238"></path><path d="M410.4,312.91c0,.14-13.31.26-29.74.26s-29.74-.12-29.74-.26,13.31-.26,29.74-.26S410.4,312.76,410.4,312.91Z" style="fill:#263238"></path><path d="M409.89,344.38c0,.14-13.32.26-29.74.26s-29.74-.12-29.74-.26,13.31-.27,29.74-.27S409.89,344.23,409.89,344.38Z" style="fill:#263238"></path><path d="M389.46,210c.14,0,.31.64.18,1.44s-.47,1.38-.6,1.32,0-.66.09-1.4S389.31,210,389.46,210Z" style="fill:#407BFF"></path><polygon points="336.19 262.4 341.04 282.83 370.86 282.18 366.45 261.81 336.19 262.4" style="fill:#263238"></polygon><path d="M360.08,270.26h8.06v-2.93s5.85,0,7.32,4.63V279h-5.6a6.38,6.38,0,0,1-6.36-5.86h0S359.35,272.7,360.08,270.26Z" style="fill:#b78876"></path><path d="M415.71,267.38l-9.11-18.66-11.5,8.11,3.89,8.86-25.65,2.44v11.74c.48.12,19.31.08,31.81,0a11,11,0,0,0,10.92-11h0A3.59,3.59,0,0,0,415.71,267.38Z" style="fill:#455a64"></path><path d="M401.53,279.81c0,.14-6.31.26-14.09.26s-14.1-.12-14.1-.26,6.31-.26,14.1-.26S401.53,279.67,401.53,279.81Z" style="fill:#263238"></path><path d="M399,265.69a4.56,4.56,0,0,1-1,.2c-.64.1-1.57.22-2.72.36-2.3.29-5.48.65-9,1s-6.7.66-9,.85c-1.16.1-2.09.17-2.74.2a3.28,3.28,0,0,1-1,0,4.54,4.54,0,0,1,1-.2c.64-.1,1.57-.22,2.72-.36,2.3-.29,5.48-.65,9-1s6.7-.66,9-.85c1.16-.1,2.09-.17,2.74-.2A3.34,3.34,0,0,1,399,265.69Z" style="fill:#263238"></path><path d="M402.82,270.58a17.46,17.46,0,0,1-2-2.53,18.53,18.53,0,0,1-1.95-2.58,7.12,7.12,0,0,1,2.36,2.26A7.42,7.42,0,0,1,402.82,270.58Z" style="fill:#263238"></path><path d="M404.53,267.75c-.1.12-1.16-.72-2.67-1.34s-2.83-.79-2.82-1a4.86,4.86,0,0,1,3,.47A4.8,4.8,0,0,1,404.53,267.75Z" style="fill:#263238"></path><circle cx="351.7" cy="268.67" r="0.91" style="fill:#455a64"></circle><rect x="383.78" y="253.42" width="8.57" height="2.25" style="fill:#407BFF"></rect><path d="M327.59,252.1a16.62,16.62,0,0,1,2.36-3.5,17.08,17.08,0,0,1,2.77-3.19,17.11,17.11,0,0,1-2.36,3.5A18,18,0,0,1,327.59,252.1Z" style="fill:#263238"></path><path d="M327.18,248.6a11.13,11.13,0,0,1,5.81-3.53,24,24,0,0,1-2.91,1.75A23.77,23.77,0,0,1,327.18,248.6Z" style="fill:#263238"></path></g><g id="freepik--character-1--inject-33"><path d="M167.33,259.19a8.48,8.48,0,0,0,1.09,2,5.39,5.39,0,0,0,1.27,1.34,24,24,0,0,0,2.32,1.52s22.26,1.21,26,.67,13.83-12.65,13.83-12.65l8.21,9.29a68.74,68.74,0,0,1-16.85,14.22c-6.32,3.65-34-2.91-34-2.91a69.69,69.69,0,0,1-7.28.2c-3.39-.23-3.38-.54-3.28-.93.25-1.05,6,.18,4.91-.8s-7.19-.69-6.88-1.77c.4-1.42,6.38,0,6.9.06s.65-.66.18-.71c-.68-.07-7.73-1-7.35-2.36.21-.78,1.56-.26,1.56-.26s6.55,1.33,6.71.66-3.66-1.58-5-1.8-1.71-.91-1.14-1.41c.39-.33,4.41.23,5.7.48s4.81,1,3.36-.8-1.88-3.68-1.64-4.28A.72.72,0,0,1,167.33,259.19Z" style="fill:#ffbe9d"></path><path d="M228.08,211.14c-1.38-.34-1.16-4.13-1.3-5.29a3.73,3.73,0,0,1,.14-2.1,2.88,2.88,0,0,1,2.25-1.4c.91-.14,1.85,0,2.76-.18,1.83-.27,3.47-1.4,5.32-1.57a5.25,5.25,0,0,1,4.13,1.51,10.11,10.11,0,0,0,1.9,1.91,10.28,10.28,0,0,0,2.29.68,5.27,5.27,0,0,1,3.63,4.3,14.84,14.84,0,0,1-.26,3.51,5.44,5.44,0,0,0,.49,3.43c.64,1,1.84,1.65,2.43,2.72a3,3,0,0,1-.15,3.07,3,3,0,0,1-2.82,1.24c-.35-.05-.74-.15-1,.07a1.35,1.35,0,0,0-.31.82,2.22,2.22,0,0,1-4.37-.8" style="fill:#263238"></path><path d="M244.05,235.43l-12.08-1c-.07-1.41,0-6.87,0-6.87s-5-.78-5.09-5.8.81-16.56.81-16.56h0a17.45,17.45,0,0,1,17.54,2.21l.75.57Z" style="fill:#ffbe9d"></path><path d="M229.18,213.89a.73.73,0,1,0-1,0A.73.73,0,0,0,229.18,213.89Z" style="fill:#263238"></path><path d="M227.66,212.73c.08.08.57-.3,1.26-.3s1.2.35,1.27.27,0-.2-.26-.37a1.69,1.69,0,0,0-2,0C227.7,212.53,227.62,212.69,227.66,212.73Z" style="fill:#263238"></path><path d="M235.61,213.46a.72.72,0,0,0-.24,1,.73.73,0,1,0,1.24-.76A.72.72,0,0,0,235.61,213.46Z" style="fill:#263238"></path><path d="M235.17,213.34c.08.08.58-.3,1.27-.3s1.19.35,1.27.27,0-.2-.26-.37a1.79,1.79,0,0,0-1-.32,1.7,1.7,0,0,0-1,.35C235.21,213.14,235.14,213.3,235.17,213.34Z" style="fill:#263238"></path><path d="M232.4,219a3.43,3.43,0,0,0-1.12-.23c-.18,0-.32-.06-.33-.16a.92.92,0,0,1,.12-.52l.55-1.41a19.24,19.24,0,0,0,1.19-3.69,18.43,18.43,0,0,0-1.56,3.56q-.27.72-.51,1.41a1.1,1.1,0,0,0-.1.75.47.47,0,0,0,.31.29.91.91,0,0,0,.31,0A3,3,0,0,0,232.4,219Z" style="fill:#263238"></path><path d="M232,227.53a11.68,11.68,0,0,0,6.55-1.86s-1.55,3.61-6.56,3.16Z" style="fill:#eb996e"></path><path d="M245.44,214c.09,0,2.89-.61,2.87,2.75s-3.41,2.23-3.41,2.14S245.44,214,245.44,214Z" style="fill:#ffbe9d"></path><path d="M245.93,217.66s.06,0,.16.09a.59.59,0,0,0,.44,0,1.45,1.45,0,0,0,.68-1.3,1.94,1.94,0,0,0-.16-.84.68.68,0,0,0-.44-.45.32.32,0,0,0-.35.16c0,.09,0,.16,0,.17s-.07-.06,0-.2a.35.35,0,0,1,.13-.21.44.44,0,0,1,.33-.08.82.82,0,0,1,.6.52,1.94,1.94,0,0,1,.2.94,1.51,1.51,0,0,1-.86,1.45.64.64,0,0,1-.54-.09C245.94,217.74,245.92,217.67,245.93,217.66Z" style="fill:#eb996e"></path><path d="M227.75,205a6,6,0,0,0,5.09,2.76,19.35,19.35,0,0,0,5.95-1.05c1.06-.29,2.34-.51,3.12.26a3,3,0,0,1,.66,1.76,18.88,18.88,0,0,1,.06,4.25,4.57,4.57,0,0,0,0,1.69,1.42,1.42,0,0,0,1.14,1.12c.88.08,1.93-1.35,2.23-2.19a12.61,12.61,0,0,0,.48-3.13,5.59,5.59,0,0,0-.65-3.57,7.37,7.37,0,0,0-3.26-2.52,19.22,19.22,0,0,0-8-2.11,10.68,10.68,0,0,0-7.63,2.9" style="fill:#263238"></path><path d="M279.58,425.81,278,419.29l12.21-3,2.35,9.52-.74.23c-3.32,1-17,4.87-19.38,4.74C269.78,430.67,279.58,425.81,279.58,425.81Z" style="fill:#407BFF"></path><g style="opacity:0.4"><path d="M288.15,426.83a4.39,4.39,0,0,1,.93-3,4.22,4.22,0,0,1,2.64-1.58l.83,3.41Z"></path></g><g style="opacity:0.4"><path d="M274.84,428.36s-3.38,1.94-2.78,2.42,14.53-2.9,20.54-4.93l-.08-.27-16.22,4.09S275.55,428.22,274.84,428.36Z"></path></g><path d="M292.71,425.53l-.21.07-.59.19-2.2.63c-1.85.52-4.43,1.21-7.29,1.91S277,429.6,275.07,430l-2.24.45-.61.11a.61.61,0,0,1-.22,0l.21-.06.61-.14,2.23-.49c1.88-.42,4.48-1,7.34-1.71s5.43-1.37,7.3-1.86l2.2-.59.6-.16Z" style="fill:#263238"></path><path d="M276.35,429.86a5.91,5.91,0,0,0-.67-.95,4.5,4.5,0,0,0-1-.67,2.06,2.06,0,0,1,1.64,1.62Z" style="fill:#263238"></path><path d="M279.5,427.16s-.25-.14-.49-.37-.43-.46-.4-.49.25.14.5.38S279.53,427.13,279.5,427.16Z" style="fill:#263238"></path><path d="M280.37,426.4a1.13,1.13,0,0,1-.5-.18c-.26-.14-.45-.28-.43-.32s.24,0,.5.18S280.39,426.36,280.37,426.4Z" style="fill:#263238"></path><path d="M280.71,425.09a1.51,1.51,0,0,1-.62.24,1.48,1.48,0,0,1-.65.09,1.43,1.43,0,0,1,.62-.24A1.48,1.48,0,0,1,280.71,425.09Z" style="fill:#263238"></path><path d="M280.73,424.23a1.34,1.34,0,0,1-.66.38,1.31,1.31,0,0,1-.76.08,4.52,4.52,0,0,1,.71-.23A3.81,3.81,0,0,1,280.73,424.23Z" style="fill:#263238"></path><path d="M278.83,426.2a2.64,2.64,0,0,1-.78.18,5,5,0,0,1-.88,0,2.62,2.62,0,0,1-.53-.08.4.4,0,0,1-.25-.2.32.32,0,0,1,0-.34,1.48,1.48,0,0,1,1.88,0,1.42,1.42,0,0,1,.38.46.59.59,0,0,1,.08.21,2.21,2.21,0,0,0-.52-.58,1.55,1.55,0,0,0-.78-.28,1.27,1.27,0,0,0-.92.29c-.1.13,0,.26.14.31a2.64,2.64,0,0,0,.49.08,6.41,6.41,0,0,0,.86,0C278.53,426.24,278.83,426.17,278.83,426.2Z" style="fill:#263238"></path><path d="M278.64,426.28s-.18-.16-.23-.52a1.4,1.4,0,0,1,.08-.62c.1-.21.22-.49.56-.56a.33.33,0,0,1,.33.3,1.09,1.09,0,0,1-.05.38,2.54,2.54,0,0,1-.26.57,1.3,1.3,0,0,1-.37.43s.12-.18.28-.48a2.88,2.88,0,0,0,.21-.55c.07-.2.07-.51-.13-.5s-.36.27-.44.46a1.33,1.33,0,0,0-.1.56A2.31,2.31,0,0,0,278.64,426.28Z" style="fill:#263238"></path><path d="M291.65,422.25s-.36.05-.9.25a3.91,3.91,0,0,0-2.57,3.33,8,8,0,0,0,0,.92s0-.08-.06-.24a2.82,2.82,0,0,1,0-.69,3.91,3.91,0,0,1,.79-2.12,3.85,3.85,0,0,1,1.86-1.3,3.66,3.66,0,0,1,.67-.15Z" style="fill:#263238"></path><path d="M289.15,417.48a21.78,21.78,0,0,1,.71,2.48,21,21,0,0,1,.57,2.52,23,23,0,0,1-.72-2.48A22.08,22.08,0,0,1,289.15,417.48Z" style="fill:#263238"></path><path d="M286.33,426a10.3,10.3,0,0,1-3.56.9s.8-.19,1.78-.44S286.31,426,286.33,426Z" style="fill:#263238"></path><path d="M288.72,425.43s0,.18-.06.38,0,.38-.09.39-.11-.18-.06-.41S288.69,425.4,288.72,425.43Z" style="fill:#263238"></path><path d="M289.35,424.09s0,.16-.11.32-.2.27-.24.25,0-.17.11-.33S289.31,424.06,289.35,424.09Z" style="fill:#263238"></path><path d="M290.51,423.26s-.16.08-.32.19-.27.23-.31.21,0-.21.23-.34S290.52,423.22,290.51,423.26Z" style="fill:#263238"></path><path d="M291.37,422.79s0,.12-.12.18-.18.09-.21.06,0-.12.12-.18S291.35,422.76,291.37,422.79Z" style="fill:#263238"></path><path d="M227.32,426.7l0-6.71,12.56-.15.16,9.81-.77.06c-3.47.23-17.63,1-20,.27C216.68,429.23,227.32,426.7,227.32,426.7Z" style="fill:#407BFF"></path><g style="opacity:0.4"><path d="M235.45,429.61a4.31,4.31,0,0,1,1.57-2.7,4.25,4.25,0,0,1,2.92-1l.05,3.51Z"></path></g><g style="opacity:0.4"><path d="M222.13,428.12s-3.73,1.13-3.26,1.74,14.82.42,21.13-.21l0-.28-16.72.35S222.86,428.14,222.13,428.12Z"></path></g><path d="M240.18,429.36l-.22,0-.62,0-2.28.13c-1.93.09-4.59.19-7.53.23s-5.62,0-7.54,0l-2.29-.07-.62,0-.21,0H222c1.93,0,4.59,0,7.53,0s5.61-.11,7.54-.18l2.28-.08.62,0Z" style="fill:#263238"></path><path d="M223.26,429.92a4.79,4.79,0,0,0-.44-1.08A4.68,4.68,0,0,0,222,428a1.67,1.67,0,0,1,.92.78A1.71,1.71,0,0,1,223.26,429.92Z" style="fill:#263238"></path><path d="M226.94,428s-.21-.19-.4-.47-.31-.54-.27-.56.21.19.4.47S227,428,226.94,428Z" style="fill:#263238"></path><path d="M228,427.44s-.22-.1-.44-.29-.38-.37-.35-.4.23.1.45.29S228,427.41,228,427.44Z" style="fill:#263238"></path><path d="M228.58,426.25a1.54,1.54,0,0,1-.65.09,1.48,1.48,0,0,1-.66-.06,1.54,1.54,0,0,1,.65-.09A1.48,1.48,0,0,1,228.58,426.25Z" style="fill:#263238"></path><path d="M228.79,425.41a1.18,1.18,0,0,1-.73.22,1.24,1.24,0,0,1-.75-.09,4.77,4.77,0,0,1,.74-.06A4.71,4.71,0,0,1,228.79,425.41Z" style="fill:#263238"></path><path d="M226.5,426.9a2.21,2.21,0,0,1-.8,0,4.83,4.83,0,0,1-.87-.18,2.41,2.41,0,0,1-.49-.2.4.4,0,0,1-.2-.25.31.31,0,0,1,.12-.32,1.47,1.47,0,0,1,1.83.41,1.35,1.35,0,0,1,.27.54.55.55,0,0,1,0,.21,2.38,2.38,0,0,0-.38-.68,1.48,1.48,0,0,0-.7-.44,1.24,1.24,0,0,0-1,.08c-.12.09-.07.24.07.33a3.17,3.17,0,0,0,.46.19,5.47,5.47,0,0,0,.83.2C226.2,426.88,226.5,426.88,226.5,426.9Z" style="fill:#263238"></path><path d="M226.29,426.94a.79.79,0,0,1-.1-.55,1.34,1.34,0,0,1,.22-.6.81.81,0,0,1,.66-.42.33.33,0,0,1,.26.37,1.24,1.24,0,0,1-.13.37,3,3,0,0,1-.38.49c-.25.25-.45.35-.46.33s.16-.15.38-.4a2.78,2.78,0,0,0,.33-.49c.11-.17.18-.48,0-.52s-.41.19-.53.35a1.46,1.46,0,0,0-.22.53A3.22,3.22,0,0,0,226.29,426.94Z" style="fill:#263238"></path><path d="M239.88,425.93a8.88,8.88,0,0,0-.93,0,4,4,0,0,0-3.26,2.66c-.18.55-.2.91-.22.9a.62.62,0,0,1,0-.25,3.4,3.4,0,0,1,.13-.68,3.82,3.82,0,0,1,3.35-2.74,3.72,3.72,0,0,1,.69,0A.64.64,0,0,1,239.88,425.93Z" style="fill:#263238"></path><path d="M238.51,420.72a23.73,23.73,0,0,1,.14,2.57,21.69,21.69,0,0,1,0,2.59,44.46,44.46,0,0,1-.13-5.16Z" style="fill:#263238"></path><path d="M233.85,428.4a6.85,6.85,0,0,1-1.83.21,7.18,7.18,0,0,1-1.84-.13s.83,0,1.84,0S233.85,428.36,233.85,428.4Z" style="fill:#263238"></path><path d="M236.31,428.37s-.06.17-.14.36-.13.36-.17.36-.07-.2,0-.42S236.29,428.34,236.31,428.37Z" style="fill:#263238"></path><path d="M237.23,427.2s0,.16-.18.29-.26.22-.29.19.05-.16.18-.29S237.2,427.17,237.23,427.2Z" style="fill:#263238"></path><path d="M238.55,426.66s-.18,0-.36.11-.32.16-.35.14.07-.21.3-.29S238.56,426.62,238.55,426.66Z" style="fill:#263238"></path><path d="M239.49,426.4s-.06.1-.16.14-.2,0-.22,0,.06-.11.16-.15S239.47,426.36,239.49,426.4Z" style="fill:#263238"></path><polyline points="218.76 293.54 224.62 423.81 244.18 424.22 240.93 315.16 276.37 425.52 292.36 421.14 256.69 293.54" style="fill:#263238"></polyline><path d="M290.4,418.1c.1,0,.25.18.34.47s.08.55,0,.58-.26-.18-.34-.47S290.3,418.13,290.4,418.1Z" style="fill:#455a64"></path><path d="M289.13,413.87c.1,0,.33.42.5,1s.24,1.09.14,1.12-.33-.42-.5-1S289,413.9,289.13,413.87Z" style="fill:#455a64"></path><path d="M287.87,409.64c.1,0,.32.42.49,1s.24,1.09.14,1.12-.32-.42-.5-1S287.77,409.67,287.87,409.64Z" style="fill:#455a64"></path><path d="M286.6,405.41c.1,0,.32.42.5,1s.23,1.09.13,1.12-.32-.42-.5-1S286.5,405.44,286.6,405.41Z" style="fill:#455a64"></path><path d="M285.33,401.18c.1,0,.32.42.5,1s.23,1.09.13,1.12-.32-.42-.5-1S285.23,401.21,285.33,401.18Z" style="fill:#455a64"></path><path d="M284.06,397c.1,0,.32.42.5,1s.23,1.09.13,1.12-.32-.42-.49-1S284,397,284.06,397Z" style="fill:#455a64"></path><path d="M282.79,392.72c.1,0,.33.42.5,1s.24,1.09.14,1.12-.33-.42-.5-1S282.69,392.75,282.79,392.72Z" style="fill:#455a64"></path><path d="M281.52,388.49c.1,0,.33.42.5,1s.24,1.09.14,1.12-.33-.42-.5-1S281.42,388.52,281.52,388.49Z" style="fill:#455a64"></path><path d="M280.25,384.26c.1,0,.33.42.5,1s.24,1.09.14,1.12-.33-.42-.5-1S280.15,384.29,280.25,384.26Z" style="fill:#455a64"></path><path d="M279,380c.1,0,.32.42.49,1s.24,1.09.14,1.12-.32-.42-.5-1S278.89,380.06,279,380Z" style="fill:#455a64"></path><path d="M277.72,375.8c.1,0,.32.42.5,1s.23,1.09.13,1.12-.32-.42-.5-1S277.62,375.83,277.72,375.8Z" style="fill:#455a64"></path><path d="M276.45,371.57c.1,0,.32.42.5,1s.23,1.09.13,1.12-.32-.42-.5-1S276.35,371.6,276.45,371.57Z" style="fill:#455a64"></path><path d="M275.18,367.34c.1,0,.32.42.5,1s.24,1.09.13,1.12-.32-.42-.49-1S275.08,367.37,275.18,367.34Z" style="fill:#455a64"></path><path d="M273.91,363.11c.1,0,.33.42.5,1s.24,1.09.14,1.12-.33-.42-.5-1S273.81,363.14,273.91,363.11Z" style="fill:#455a64"></path><path d="M272.64,358.88c.1,0,.33.42.5,1s.24,1.09.14,1.12-.33-.42-.5-1S272.54,358.91,272.64,358.88Z" style="fill:#455a64"></path><path d="M271.38,354.65c.1,0,.32.42.49,1s.24,1.09.14,1.12-.32-.42-.5-1S271.27,354.68,271.38,354.65Z" style="fill:#455a64"></path><path d="M270.11,350.42c.1,0,.32.42.5,1s.23,1.09.13,1.12-.32-.42-.5-1S270,350.45,270.11,350.42Z" style="fill:#455a64"></path><path d="M268.84,346.19c.1,0,.32.42.5,1s.23,1.09.13,1.12-.32-.42-.5-1S268.74,346.22,268.84,346.19Z" style="fill:#455a64"></path><path d="M267.57,342c.1,0,.32.42.5,1s.23,1.09.13,1.12-.32-.42-.5-1S267.47,342,267.57,342Z" style="fill:#455a64"></path><path d="M266.3,337.73c.1,0,.32.42.5,1s.24,1.09.14,1.12-.33-.42-.5-1S266.2,337.76,266.3,337.73Z" style="fill:#455a64"></path><path d="M265,333.5c.1,0,.33.42.5,1s.24,1.09.14,1.12-.33-.42-.5-1S264.93,333.53,265,333.5Z" style="fill:#455a64"></path><path d="M263.76,329.27c.1,0,.33.42.5,1s.24,1.09.14,1.12-.33-.42-.5-1S263.66,329.3,263.76,329.27Z" style="fill:#455a64"></path><path d="M262.5,325c.1,0,.32.42.49,1s.24,1.09.14,1.12-.32-.42-.5-1S262.39,325.07,262.5,325Z" style="fill:#455a64"></path><path d="M261.23,320.81c.1,0,.32.42.5,1s.23,1.09.13,1.12-.32-.42-.5-1S261.13,320.84,261.23,320.81Z" style="fill:#455a64"></path><path d="M260,316.58c.1,0,.32.42.5,1s.23,1.09.13,1.12-.32-.42-.5-1S259.86,316.61,260,316.58Z" style="fill:#455a64"></path><path d="M258.69,312.35c.1,0,.32.42.5,1s.23,1.09.13,1.12-.32-.42-.49-1S258.59,312.38,258.69,312.35Z" style="fill:#455a64"></path><path d="M257.42,308.12c.1,0,.33.42.5,1s.24,1.09.14,1.12-.33-.42-.5-1S257.32,308.15,257.42,308.12Z" style="fill:#455a64"></path><path d="M256.15,303.89c.1,0,.33.42.5,1s.24,1.09.14,1.12-.33-.42-.5-1S256.05,303.92,256.15,303.89Z" style="fill:#455a64"></path><path d="M254.88,299.66c.1,0,.33.42.5,1s.24,1.09.14,1.12-.33-.42-.5-1S254.78,299.69,254.88,299.66Z" style="fill:#455a64"></path><path d="M253.94,296.5c.1,0,.25.18.33.47s.08.55,0,.58-.25-.18-.34-.47S253.84,296.53,253.94,296.5Z" style="fill:#455a64"></path><path d="M240.81,423.15c.1,0,.2.24.21.54s-.05.55-.16.56-.2-.24-.21-.54S240.7,423.16,240.81,423.15Z" style="fill:#455a64"></path><path d="M240.63,418.81c.1,0,.21.48.23,1.08s-.05,1.09-.15,1.09-.21-.47-.23-1.07S240.52,418.82,240.63,418.81Z" style="fill:#455a64"></path><path d="M240.49,414.47c.11,0,.21.48.22,1.08s-.05,1.09-.15,1.09-.21-.48-.23-1.08S240.39,414.48,240.49,414.47Z" style="fill:#455a64"></path><path d="M240.38,410.13c.11,0,.2.48.22,1.08s-.06,1.09-.16,1.09-.21-.48-.22-1.08S240.28,410.13,240.38,410.13Z" style="fill:#455a64"></path><path d="M240.28,405.79c.1,0,.2.48.22,1.08s-.06,1.09-.17,1.09-.2-.48-.21-1.08S240.17,405.79,240.28,405.79Z" style="fill:#455a64"></path><path d="M240.17,401.44c.1,0,.2.48.22,1.08s-.06,1.09-.16,1.09-.21-.48-.22-1.08S240.06,401.44,240.17,401.44Z" style="fill:#455a64"></path><path d="M240,397.1c.11,0,.21.48.23,1.08s0,1.09-.15,1.09-.21-.48-.23-1.08S239.92,397.1,240,397.1Z" style="fill:#455a64"></path><path d="M239.84,392.76c.11,0,.21.48.24,1.08s0,1.08-.15,1.09-.21-.48-.23-1.08S239.74,392.76,239.84,392.76Z" style="fill:#455a64"></path><path d="M239.67,388.42c.11,0,.21.48.23,1.08s0,1.08-.15,1.09-.2-.48-.23-1.08S239.57,388.42,239.67,388.42Z" style="fill:#455a64"></path><path d="M239.52,384.08c.1,0,.21.48.23,1.08s-.05,1.08-.16,1.09-.2-.48-.22-1.08S239.42,384.08,239.52,384.08Z" style="fill:#455a64"></path><path d="M239.39,379.73c.1,0,.2.48.22,1.08s-.05,1.09-.16,1.09-.2-.48-.22-1.08S239.28,379.74,239.39,379.73Z" style="fill:#455a64"></path><path d="M239.27,375.39c.11,0,.21.48.22,1.08s-.06,1.09-.16,1.09-.2-.48-.22-1.08S239.17,375.39,239.27,375.39Z" style="fill:#455a64"></path><path d="M239.18,371.05c.1,0,.2.48.21,1.08s-.06,1.09-.17,1.09-.2-.48-.21-1.08S239.08,371.05,239.18,371.05Z" style="fill:#455a64"></path><path d="M239.11,366.7c.1,0,.19.49.2,1.09s-.06,1.08-.17,1.09-.2-.49-.21-1.09S239,366.71,239.11,366.7Z" style="fill:#455a64"></path><path d="M239.05,362.36c.11,0,.2.49.21,1.08s-.08,1.09-.18,1.09-.2-.48-.2-1.08S239,362.36,239.05,362.36Z" style="fill:#455a64"></path><path d="M239,358c.11,0,.2.48.2,1.08s-.08,1.09-.18,1.09-.2-.49-.2-1.09S238.92,358,239,358Z" style="fill:#455a64"></path><path d="M239,353.67c.11,0,.19.49.19,1.09s-.08,1.09-.18,1.09-.19-.49-.19-1.09S238.91,353.67,239,353.67Z" style="fill:#455a64"></path><path d="M239,349.33c.1,0,.18.49.18,1.09s-.09,1.08-.19,1.08-.19-.48-.19-1.08S238.92,349.33,239,349.33Z" style="fill:#455a64"></path><path d="M239.06,345c.11,0,.19.48.18,1.08s-.09,1.09-.2,1.09-.18-.49-.18-1.09S239,345,239.06,345Z" style="fill:#455a64"></path><path d="M239.12,340.64c.1,0,.18.49.17,1.09s-.1,1.09-.2,1.09-.19-.49-.18-1.09S239,340.64,239.12,340.64Z" style="fill:#455a64"></path><path d="M239.19,336.3c.11,0,.18.49.17,1.09s-.1,1.09-.21,1.08-.18-.49-.17-1.09S239.09,336.3,239.19,336.3Z" style="fill:#455a64"></path><path d="M239.29,332c.11,0,.18.49.17,1.09s-.12,1.08-.22,1.08-.18-.49-.16-1.09S239.19,332,239.29,332Z" style="fill:#455a64"></path><path d="M239.45,327.61c.1,0,.17.5.14,1.09s-.13,1.09-.23,1.08-.17-.49-.15-1.09S239.34,327.61,239.45,327.61Z" style="fill:#455a64"></path><path d="M239.7,323.27c.1,0,.16.5.12,1.1s-.16,1.08-.26,1.07-.16-.5-.12-1.1S239.59,323.26,239.7,323.27Z" style="fill:#455a64"></path><path d="M240.1,319c.1,0,.14.5.07,1.1s-.19,1.07-.29,1.06-.14-.5-.08-1.1S240,318.93,240.1,319Z" style="fill:#455a64"></path><path d="M240.52,315.72c.1,0,.15.27.11.57s-.16.52-.27.51-.15-.27-.11-.57S240.41,315.7,240.52,315.72Z" style="fill:#455a64"></path><path d="M237.67,295.19a3.12,3.12,0,0,1,.13.79c0,.52.12,1.26.19,2.19.15,1.84.33,4.38.5,7.2.08,1.4.16,2.74.23,4a12.3,12.3,0,0,0,.38,3.16,2.71,2.71,0,0,0,1.32,1.57,3.88,3.88,0,0,0,.75.22s-.07,0-.21,0a1.59,1.59,0,0,1-.6-.11,2.76,2.76,0,0,1-1.51-1.61,11.89,11.89,0,0,1-.48-3.24c-.08-1.23-.16-2.57-.26-4-.17-2.81-.31-5.36-.39-7.21,0-.92-.06-1.67-.07-2.19A3.87,3.87,0,0,1,237.67,295.19Z" style="fill:#455a64"></path><path d="M239.68,296.92c0,.05-.16.18-.18.48a.58.58,0,0,0,.15.45.46.46,0,0,0,.51.07.47.47,0,0,0,.32-.41.64.64,0,0,0-.2-.42c-.23-.21-.46-.17-.47-.22s.24-.22.62,0a.83.83,0,0,1,.4.63.79.79,0,0,1-.53.77.81.81,0,0,1-.91-.18.87.87,0,0,1-.16-.73C239.35,296.93,239.68,296.87,239.68,296.92Z" style="fill:#455a64"></path><path d="M258.08,300a3.75,3.75,0,0,1-1.62.62,6.9,6.9,0,0,1-7.29-3.26,3.67,3.67,0,0,1-.62-1.63c.06,0,.26.62.85,1.48a7.32,7.32,0,0,0,3,2.6,7.44,7.44,0,0,0,4,.54C257.45,300.22,258.06,300,258.08,300Z" style="fill:#455a64"></path><path d="M225.56,295.19a2.85,2.85,0,0,1-.07,1.41,5.69,5.69,0,0,1-1.75,2.93,5.62,5.62,0,0,1-3.13,1.35,2.71,2.71,0,0,1-1.41-.12c0-.06.54,0,1.37-.15a5.82,5.82,0,0,0,4.66-4.08C225.48,295.72,225.5,295.19,225.56,295.19Z" style="fill:#455a64"></path><path d="M271.71,252.41,259.39,240h0a22.06,22.06,0,0,0-8.51-5.51,17.59,17.59,0,0,0-5.33-1h0a21.33,21.33,0,0,1-12.87,0c-1.77.22-12.44.4-16.08,4h0l-11,20.24L217.42,266l3.63-6.92-.58,12.95L218.52,295l38.17.4-.49-20.75,0-15,5.51,5.36Z" style="fill:#455a64"></path><path d="M249.5,209.9H225.33a1.28,1.28,0,0,1-1.29-1.29h0a1.29,1.29,0,0,1,1.29-1.29H249.5a1.29,1.29,0,0,1,1.29,1.29h0A1.29,1.29,0,0,1,249.5,209.9Z" style="fill:#407BFF"></path><path d="M248.67,207.66H226.15v-1.78a11.26,11.26,0,0,1,11.26-11.26h0a11.26,11.26,0,0,1,11.26,11.26Z" style="fill:#407BFF"></path><rect x="235.38" y="194.62" width="3.45" height="13.54" style="fill:#407BFF"></rect><path d="M220,234.33l-2.36,66.39,42.32-2.38-3.81-61.15s-6.87-4.53-10.55-3.72l-8.79,28.8L230,232.86Z" style="fill:#407BFF"></path><polygon points="259.15 283.1 218.22 282.93 218.36 279.1 258.87 279.45 259.15 283.1" style="fill:#fff"></polygon><polygon points="259.51 291.95 217.88 291.78 218.02 287.95 259.26 287.95 259.51 291.95" style="fill:#fff"></polygon><path d="M262.87,263.7l3.92,3.43-28.13-2.72-3.31,8.91,36.13,6.42c4.2.56,10.92-2.18,11.65-7.67h0a10.12,10.12,0,0,0-2.76-8.41l-10.05-9.52" style="fill:#ffbe9d"></path><path d="M235.31,207.44a38.62,38.62,0,0,1-.26-6.39,38.62,38.62,0,0,1,.26-6.39,40,40,0,0,1,.26,6.39A40,40,0,0,1,235.31,207.44Z" style="fill:#263238"></path><path d="M238.78,207.44a38.62,38.62,0,0,1-.26-6.39,38.62,38.62,0,0,1,.26-6.39,40,40,0,0,1,.26,6.39A40,40,0,0,1,238.78,207.44Z" style="fill:#263238"></path><path d="M249.06,207.3c0,.14-5.16.26-11.53.26S226,207.44,226,207.3s5.16-.26,11.54-.26S249.06,207.15,249.06,207.3Z" style="fill:#263238"></path><g style="opacity:0.2"><path d="M238.85,194.59v12.78l1.72-12.3Z"></path></g><g style="opacity:0.6000000000000001"><path d="M233.83,196.72a11.4,11.4,0,0,1-1.5.83,10.91,10.91,0,0,0-3,2.66,10.79,10.79,0,0,0-1.83,3.59,11.57,11.57,0,0,1-.44,1.65,3.82,3.82,0,0,1,.08-1.74,9.41,9.41,0,0,1,5-6.48A3.76,3.76,0,0,1,233.83,196.72Z" style="fill:#fff"></path></g><path d="M235.47,219.52c.09.1-.45.75-1.33,1.27s-1.7.71-1.75.58.66-.52,1.48-1S235.37,219.41,235.47,219.52Z" style="fill:#263238"></path><path d="M236,273.08a69.69,69.69,0,0,1-7.28.2c-3.39-.23-3.38-.54-3.28-.93.25-1.05,6,.18,4.91-.8s-7.19-.69-6.88-1.77c.4-1.42,6.38,0,6.9.06s.65-.66.18-.71c-.68-.07-7.73-1-7.35-2.36.21-.78,1.57-.27,1.57-.27s6.54,1.34,6.7.67-3.66-1.58-5-1.8-1.72-.91-1.15-1.41c.39-.34,4.41.23,5.7.48s4.81,1,3.37-.8-1.89-3.68-1.65-4.28a.72.72,0,0,1,1.34.21,8.48,8.48,0,0,0,1.09,2,5.58,5.58,0,0,0,1.27,1.34,24,24,0,0,0,2.32,1.52" style="fill:#ffbe9d"></path></g><g id="freepik--Machine--inject-33"><rect x="598.05" y="321.03" width="48.57" height="31.21" transform="translate(459.69 -351.96) rotate(48.3)" style="fill:#407BFF"></rect><path d="M652.92,348.28a4.67,4.67,0,1,1,.38-6.59A4.69,4.69,0,0,1,652.92,348.28Z" style="fill:#455a64"></path><polygon points="652.51 346.08 647.81 345.89 648.01 342.71 649 342.77 648.87 344.93 652.55 345.08 652.51 346.08" style="fill:#fff"></polygon><path d="M616.83,354.59c-.09-.11,5.08-4.87,11.55-10.64s11.8-10.35,11.89-10.24-5.07,4.87-11.54,10.63S616.93,354.7,616.83,354.59Z" style="fill:#263238"></path><path d="M637.46,356.51c-.1.09-7.56-8.14-16.64-18.4s-16.36-18.65-16.25-18.74,7.55,8.14,16.64,18.4S637.57,356.41,637.46,356.51Z" style="fill:#fafafa"></path><path d="M604.64,340.15c-.1-.11,5.05-4.83,11.5-10.54s11.75-10.26,11.85-10.15-5.06,4.83-11.51,10.54S604.73,340.25,604.64,340.15Z" style="fill:#fafafa"></path><path d="M621.76,359.84c-.1-.11,5.1-4.86,11.59-10.62s11.84-10.33,11.94-10.22-5.09,4.85-11.59,10.61S621.86,359.94,621.76,359.84Z" style="fill:#fafafa"></path><path d="M614.41,330.55a2.9,2.9,0,0,1-.65-.74,11.9,11.9,0,0,1-1.29-2.33,12.63,12.63,0,0,1-.94-3.86,4.83,4.83,0,0,1,.27-2.4,2,2,0,0,1,2.31-1.2,2.91,2.91,0,0,1,2.06,1.62,6.11,6.11,0,0,1,.56,2.33,10.15,10.15,0,0,1-.48,3.94,9.33,9.33,0,0,1-1.16,2.41,2.72,2.72,0,0,1-.62.75,17.57,17.57,0,0,0,1.43-3.26,10.53,10.53,0,0,0,.36-3.8,6,6,0,0,0-.55-2.14,2.39,2.39,0,0,0-1.7-1.34,1.53,1.53,0,0,0-1.75.9,4.53,4.53,0,0,0-.25,2.16,13.29,13.29,0,0,0,.8,3.75A26.77,26.77,0,0,0,614.41,330.55Z" style="fill:#fafafa"></path><path d="M614.15,331.39a2.27,2.27,0,0,1,.69-.56,10.29,10.29,0,0,1,2.18-1.06,11,11,0,0,1,3.55-.62,11.28,11.28,0,0,1,2.13.18,2.74,2.74,0,0,1,1.13.46,1.51,1.51,0,0,1,.65,1.16,1.56,1.56,0,0,1-.61,1.18,3.8,3.8,0,0,1-1,.59,8.33,8.33,0,0,1-2.09.56,8.21,8.21,0,0,1-3.6-.35,7.36,7.36,0,0,1-2.15-1.12,2.46,2.46,0,0,1-.65-.62,12.6,12.6,0,0,0,2.91,1.39,8.24,8.24,0,0,0,3.43.22,7.45,7.45,0,0,0,1.94-.55c.63-.25,1.32-.7,1.32-1.29a1,1,0,0,0-.44-.76,2.29,2.29,0,0,0-.92-.37,11.08,11.08,0,0,0-2-.2,11.59,11.59,0,0,0-3.44.49A22.73,22.73,0,0,0,614.15,331.39Z" style="fill:#fafafa"></path><polygon points="591.6 324.36 652.78 393.95 729.7 393.95 729.7 428.72 648.62 428.72 575.86 345.38 591.6 324.36" style="fill:#263238"></polygon><path d="M523.14,270.18a2.59,2.59,0,0,1,.61.11,15.56,15.56,0,0,1,1.74.46,22.75,22.75,0,0,1,5.91,2.92,29.8,29.8,0,0,1,7,6.78A37.79,37.79,0,0,1,544,291.07a55.5,55.5,0,0,1,2.4,11.73,96.27,96.27,0,0,1,.44,9.76c0,2.78-.08,5-.14,6.58,0,.73-.06,1.33-.09,1.79a2.5,2.5,0,0,1-.06.62,2.69,2.69,0,0,1,0-.62c0-.47,0-1.06,0-1.79,0-1.55,0-3.8,0-6.57s-.15-6.08-.55-9.72a57.08,57.08,0,0,0-2.41-11.62,37.9,37.9,0,0,0-5.43-10.49,29.88,29.88,0,0,0-6.86-6.77,24.62,24.62,0,0,0-5.77-3C524,270.43,523.13,270.23,523.14,270.18Z" style="fill:#263238"></path><path d="M550,321.55a4.43,4.43,0,0,1,0-.68c0-.5,0-1.15,0-2,0-1.71,0-4.18,0-7.22s-.16-6.67-.56-10.67a69.77,69.77,0,0,0-2.4-12.82,46.85,46.85,0,0,0-5.37-11.84,36.9,36.9,0,0,0-6.91-8.05,30.4,30.4,0,0,0-5.92-4c-1.51-.77-2.39-1.12-2.37-1.17a4.5,4.5,0,0,1,.65.22,19.25,19.25,0,0,1,1.81.77,28.28,28.28,0,0,1,6.07,3.94,36,36,0,0,1,7.07,8.07,46.1,46.1,0,0,1,5.47,11.95A68.61,68.61,0,0,1,549.77,301c.37,4,.45,7.67.45,10.72s-.06,5.51-.12,7.22c0,.81-.06,1.46-.08,2A3.14,3.14,0,0,1,550,321.55Z" style="fill:#263238"></path><path d="M449.12,213.66c.29.52-.2,47.37-.2,47.37l-3.82,0-1.28-47.41Z" style="fill:#263238"></path><polygon points="444.72 254.68 449.12 254.91 449.08 261.54 454.06 264.14 454.03 268.5 450.77 273.01 450.64 266.73 446.57 264.61 443.1 266.42 443.31 273.19 439.72 268.79 439.92 264.76 444.54 261.32 444.72 254.68" style="fill:#263238"></polygon><path d="M469.3,221l37,44.68a11,11,0,0,0,15.51,1.45h0a11,11,0,0,0,1.45-15.51l-37-44.68a11,11,0,0,0-15.51-1.45h0A11,11,0,0,0,469.3,221Z" style="fill:#455a64"></path><path d="M447,220.8h33a6.91,6.91,0,0,0,6.91-6.91h0a6.91,6.91,0,0,0-6.91-6.91H447a6.91,6.91,0,0,0-6.91,6.91h0A6.91,6.91,0,0,0,447,220.8Z" style="fill:#455a64"></path><rect x="497.23" y="246.05" width="30.94" height="97.35" rx="15.47" transform="translate(1025.4 589.45) rotate(180)" style="fill:#455a64"></rect><circle cx="512.39" cy="328.62" r="7.63" transform="translate(-73.83 492.57) rotate(-48.3)" style="fill:#263238"></circle><circle cx="512.7" cy="259.41" r="7.63" transform="translate(-33.26 438.51) rotate(-45)" style="fill:#263238"></circle><circle cx="478.96" cy="213.89" r="4.63" style="fill:#263238"></circle><circle cx="446.24" cy="213.89" r="3.14" style="fill:#263238"></circle><path d="M497.32,262.79a1.28,1.28,0,0,1-.07-.42,9.54,9.54,0,0,1,0-1.19,14.5,14.5,0,0,1,.74-4.32,16.38,16.38,0,0,1,3.2-5.66,15,15,0,0,1,14.47-5.13,16.48,16.48,0,0,1,6.06,2.38,15,15,0,0,1,3.3,2.89,10.64,10.64,0,0,1,.71,1c.15.22.23.34.21.36a19.47,19.47,0,0,0-4.42-3.89,16.52,16.52,0,0,0-5.94-2.23,14.85,14.85,0,0,0-14,5A16.66,16.66,0,0,0,498.3,257,19.3,19.3,0,0,0,497.32,262.79Z" style="fill:#263238"></path><path d="M469.79,206c.08.06-.46.89-1,2.36a15.24,15.24,0,0,0-1,6,15.57,15.57,0,0,0,1.49,5.91c.7,1.42,1.31,2.2,1.24,2.25s-.2-.15-.49-.49a9.13,9.13,0,0,1-1.07-1.59,12.73,12.73,0,0,1-1.11-2.62,16,16,0,0,1-.58-3.43,15.44,15.44,0,0,1,.28-3.48,12.63,12.63,0,0,1,.86-2.7,9.66,9.66,0,0,1,.93-1.67C469.61,206.15,469.76,206,469.79,206Z" style="fill:#263238"></path><path d="M96.15,258.57c0,.05-1,.28-2.62.86a28,28,0,0,0-6.62,3.46A34.27,34.27,0,0,0,79,270.64a43.35,43.35,0,0,0-6.22,12A65.56,65.56,0,0,0,70.05,296c-.44,4.17-.57,7.95-.61,11.12s0,5.75,0,7.53v2.05a3.51,3.51,0,0,1,0,.71,3.56,3.56,0,0,1-.07-.71l-.09-2.05c-.06-1.77-.14-4.35-.14-7.53a108.23,108.23,0,0,1,.51-11.17,64,64,0,0,1,2.74-13.43,43.32,43.32,0,0,1,6.33-12.15,33.86,33.86,0,0,1,8-7.77,26.27,26.27,0,0,1,6.76-3.35,19.3,19.3,0,0,1,2-.54A3.61,3.61,0,0,1,96.15,258.57Z" style="fill:#263238"></path><path d="M65.44,317.41a4.44,4.44,0,0,1-.07-.79c0-.56-.05-1.31-.08-2.24-.06-2-.13-4.78-.13-8.28s.1-7.65.52-12.26a78.8,78.8,0,0,1,2.73-14.79,53.13,53.13,0,0,1,6.26-13.68,41.4,41.4,0,0,1,8.08-9.24,33,33,0,0,1,6.94-4.52,21.24,21.24,0,0,1,2.08-.88,3.46,3.46,0,0,1,.74-.26,5.86,5.86,0,0,1-.7.35c-.46.24-1.18.49-2,1A34.14,34.14,0,0,0,83,256.41a42.13,42.13,0,0,0-7.92,9.22,53.47,53.47,0,0,0-6.16,13.56,80.43,80.43,0,0,0-2.75,14.69c-.45,4.59-.58,8.74-.63,12.23s0,6.31,0,8.26c0,.94,0,1.69,0,2.25A4.37,4.37,0,0,1,65.44,317.41Z" style="fill:#263238"></path><path d="M180.48,193.25c-.31.6,1.56,35.07,1.56,35.07l4.37-.07.14-35.16Z" style="fill:#263238"></path><polygon points="188.59 209.82 178.24 210.64 178.74 226.28 167.16 232.73 167.5 243.01 175.46 253.43 175.39 238.62 184.84 233.36 193.14 237.41 193.06 253.39 201.26 242.79 200.54 233.3 189.44 225.49 188.59 209.82" style="fill:#263238"></polygon><path d="M157.8,202.3l-42.42,51.16a12.61,12.61,0,0,1-17.76,1.66h0A12.61,12.61,0,0,1,96,237.37l42.42-51.17a12.62,12.62,0,0,1,17.76-1.66h0A12.62,12.62,0,0,1,157.8,202.3Z" style="fill:#455a64"></path><rect x="137.74" y="186.19" width="53.57" height="15.83" rx="7.91" style="fill:#455a64"></rect><path d="M108.1,342.42h0a17.72,17.72,0,0,1-17.72-17.71V248.65a17.72,17.72,0,0,1,17.72-17.71h0a17.71,17.71,0,0,1,17.71,17.71v76.06A17.71,17.71,0,0,1,108.1,342.42Z" style="fill:#455a64"></path><circle cx="108.46" cy="325.5" r="8.73" transform="translate(-198.4 172.03) rotate(-45)" style="fill:#263238"></circle><circle cx="108.1" cy="246.24" r="8.73" transform="translate(-152.27 313.5) rotate(-80.78)" style="fill:#263238"></circle><circle cx="146.74" cy="194.11" r="5.3" style="fill:#263238"></circle><path d="M186.76,191.56a3.6,3.6,0,1,1-5.09,0A3.61,3.61,0,0,1,186.76,191.56Z" style="fill:#263238"></path><path d="M125.72,250.1a21.77,21.77,0,0,0-1.1-6.65,19.29,19.29,0,0,0-3.68-6.28,17,17,0,0,0-16.1-5.7A19.06,19.06,0,0,0,98,234a22.23,22.23,0,0,0-5,4.47,1.69,1.69,0,0,1,.25-.4,11.31,11.31,0,0,1,.82-1.09,16.78,16.78,0,0,1,3.79-3.3,18.82,18.82,0,0,1,6.92-2.71,17.19,17.19,0,0,1,16.54,5.86,18.9,18.9,0,0,1,3.67,6.47,16.65,16.65,0,0,1,.86,4.94,10,10,0,0,1,0,1.36A1.39,1.39,0,0,1,125.72,250.1Z" style="fill:#263238"></path><path d="M157.24,185s.2.21.5.63a11.6,11.6,0,0,1,1,1.92,14.62,14.62,0,0,1,1,3.09,16.84,16.84,0,0,1,.31,4,17.33,17.33,0,0,1-.66,3.93,15.23,15.23,0,0,1-1.25,3,10.93,10.93,0,0,1-1.21,1.81c-.33.4-.53.61-.56.58s.64-.94,1.44-2.56a17.38,17.38,0,0,0,1.12-3,19.1,19.1,0,0,0,.6-3.82,18.36,18.36,0,0,0-.26-3.86,16.43,16.43,0,0,0-.85-3C157.79,186,157.15,185.1,157.24,185Z" style="fill:#263238"></path><rect x="27.72" y="313.91" width="563.87" height="31.47" rx="15.73" style="fill:#455a64"></rect><circle cx="510.27" cy="330.58" r="7.82" transform="translate(70.97 750.9) rotate(-76.67)" style="fill:#263238"></circle><circle cx="574.44" cy="329.34" r="7.82" transform="matrix(0.26, -0.97, 0.97, 0.26, 109.08, 800.39)" style="fill:#263238"></circle><circle cx="439.07" cy="330.58" r="7.82" transform="translate(-105.15 407.29) rotate(-45)" style="fill:#263238"></circle><circle cx="367.87" cy="330.58" r="7.82" transform="translate(-98.18 165.02) rotate(-22.39)" style="fill:#263238"></circle><circle cx="296.67" cy="330.58" r="7.82" transform="translate(-93.39 543.05) rotate(-76.67)" style="fill:#263238"></circle><circle cx="225.47" cy="330.58" r="7.82" transform="translate(-168.84 262.45) rotate(-45.9)" style="fill:#263238"></circle><circle cx="154.27" cy="330.58" r="7.82" transform="matrix(0.92, -0.38, 0.38, 0.92, -114.76, 84.2)" style="fill:#263238"></circle><circle cx="57.19" cy="330.58" r="7.82" transform="translate(-277.68 310.29) rotate(-76.72)" style="fill:#263238"></circle><polygon points="153.09 430.05 63.83 430.05 65.02 345.38 154.27 345.38 153.09 430.05" style="fill:#263238"></polygon><polygon points="548.69 429.82 459.44 429.82 460.13 345.38 549.39 345.38 548.69 429.82" style="fill:#263238"></polygon><path d="M126.71,313.91c0,.14-8.17.26-18.25.26s-18.25-.12-18.25-.26,8.17-.26,18.25-.26S126.71,313.76,126.71,313.91Z" style="fill:#263238"></path><path d="M573.61,342.42l.74-.05a12.69,12.69,0,0,0,2.17-.31,13.82,13.82,0,0,0,3.38-1.28,13.68,13.68,0,0,0,3.83-3.17,13.1,13.1,0,0,0,2.1-13.16,13.09,13.09,0,0,0-10.34-8.19,43,43,0,0,0-5.24-.14L448,316.2l-403.27.08a12.92,12.92,0,0,0-6.85,2,12.2,12.2,0,0,0-2.76,2.31,11.9,11.9,0,0,0-2,3,12.85,12.85,0,0,0,1.32,13.55,12.9,12.9,0,0,0,5.63,4.22,12.86,12.86,0,0,0,3.45.82c1.17.08,2.39,0,3.6.06h71.07l107.08,0,181.3.06,122.22.08,33.23.05,8.65,0,2.94,0-2.94,0-8.65,0-33.23,0-122.22.08-181.3.06H47.12c-1.21,0-2.41,0-3.65-.06a13.42,13.42,0,0,1-3.59-.85A12.92,12.92,0,0,1,36.65,340,12.76,12.76,0,0,1,34,337.37a13.38,13.38,0,0,1-1.37-14.09,12.44,12.44,0,0,1,2.1-3.08,12.67,12.67,0,0,1,2.86-2.4,13.51,13.51,0,0,1,7.13-2l403.27.07,122.24.09a43.41,43.41,0,0,1,5.26.15,13.4,13.4,0,0,1,4.69,1.62,13.24,13.24,0,0,1,5.77,6.7,13.25,13.25,0,0,1-2.16,13.29,13.62,13.62,0,0,1-3.87,3.17,13.92,13.92,0,0,1-3.4,1.26,13.44,13.44,0,0,1-2.19.29Z" style="fill:#263238"></path><rect x="423.15" y="280.81" width="51.5" height="33.1" style="fill:#407BFF"></rect><path d="M479.68,281.35a4.95,4.95,0,1,1-4.95-5A4.94,4.94,0,0,1,479.68,281.35Z" style="fill:#455a64"></path><polygon points="474.19 283.66 471.83 281.29 472.54 280.58 474.18 282.23 476.92 279.41 477.64 280.1 474.19 283.66" style="fill:#fff"></polygon><path d="M459.23,314.37c-.14,0-.26-7.45-.26-16.64s.12-16.65.26-16.65.26,7.45.26,16.65S459.38,314.37,459.23,314.37Z" style="fill:#263238"></path><rect x="285.01" y="284.04" width="46.86" height="30.12" style="fill:#407BFF"></rect><path d="M313.82,314.15c-.14,0-.26-6.75-.26-15.07s.12-15.07.26-15.07.26,6.75.26,15.07S314,314.15,313.82,314.15Z" style="fill:#263238"></path><rect x="132.47" y="258.57" width="33.16" height="55.34" style="fill:#407BFF"></rect><path d="M158.42,313.75c-.14,0-.26-12.28-.26-27.44s.12-27.44.26-27.44.26,12.29.26,27.44S158.56,313.75,158.42,313.75Z" style="fill:#263238"></path><rect x="669.89" y="363" width="48.57" height="31.21" transform="translate(-1.1 2.02) rotate(-0.17)" style="fill:#407BFF"></rect><path d="M723.17,363.43a4.67,4.67,0,1,1-4.68-4.66A4.66,4.66,0,0,1,723.17,363.43Z" style="fill:#455a64"></path><polygon points="717.99 365.67 715.75 363.41 716.45 362.71 717.98 364.24 720.53 361.58 721.26 362.28 717.99 365.67" style="fill:#fff"></polygon><path d="M704,394.63c-.14,0-.28-7-.31-15.7s.07-15.7.22-15.7.28,7,.3,15.7S704.11,394.63,704,394.63Z" style="fill:#263238"></path><path d="M719.09,380.45c0,.15-11.11.27-24.81.27s-24.81-.12-24.81-.27,11.1-.26,24.81-.26S719.09,380.31,719.09,380.45Z" style="fill:#fafafa"></path><path d="M685.07,394.18c-.14,0-.26-7-.26-15.6s.12-15.6.26-15.6.26,7,.26,15.6S685.21,394.18,685.07,394.18Z" style="fill:#fafafa"></path><path d="M711.16,394.42c-.14,0-.26-7-.26-15.72S711,363,711.16,363s.26,7,.26,15.72S711.31,394.42,711.16,394.42Z" style="fill:#fafafa"></path><path d="M684.36,380.5a3,3,0,0,1-1,0,11.37,11.37,0,0,1-2.6-.58,12.6,12.6,0,0,1-3.51-1.85,4.88,4.88,0,0,1-1.62-1.79,2.1,2.1,0,0,1-.15-1.36,2.18,2.18,0,0,1,.78-1.17,2.88,2.88,0,0,1,2.58-.46A6.05,6.05,0,0,1,681,374.4a10.3,10.3,0,0,1,2.63,3,9.68,9.68,0,0,1,1,2.47,2.9,2.9,0,0,1,.15,1,17.76,17.76,0,0,0-1.5-3.23,10.36,10.36,0,0,0-2.61-2.79,5.71,5.71,0,0,0-2-1,2.43,2.43,0,0,0-2.13.38,1.54,1.54,0,0,0-.48,1.92,4.54,4.54,0,0,0,1.44,1.61,13.24,13.24,0,0,0,3.35,1.89A26.45,26.45,0,0,0,684.36,380.5Z" style="fill:#fafafa"></path><path d="M684.82,381.25a2.75,2.75,0,0,1,0-.89,9.9,9.9,0,0,1,.65-2.33,11.11,11.11,0,0,1,3.45-4.55,2.82,2.82,0,0,1,1.08-.54,1.52,1.52,0,0,1,1.3.29,1.55,1.55,0,0,1,.48,1.23,3.57,3.57,0,0,1-.24,1.16,7.57,7.57,0,0,1-1,1.93A8.23,8.23,0,0,1,688,380a7.31,7.31,0,0,1-2.26.87,2.17,2.17,0,0,1-.89.07,12.34,12.34,0,0,0,3-1.26,8.3,8.3,0,0,0,2.44-2.41,7.75,7.75,0,0,0,.88-1.83c.22-.63.35-1.45-.1-1.84a1.05,1.05,0,0,0-.86-.17,2.43,2.43,0,0,0-.88.44,11.12,11.12,0,0,0-1.5,1.39,11.64,11.64,0,0,0-1.91,2.9A25.89,25.89,0,0,0,684.82,381.25Z" style="fill:#fafafa"></path></g></svg>